<?xml version="1.0" encoding="utf-8"?>
<!-- Generator: Adobe Illustrator 19.1.0, SVG Export Plug-In . SVG Version: 6.00 Build 0)  -->
<!DOCTYPE svg PUBLIC "-//W3C//DTD SVG 1.1//EN" "http://www.w3.org/Graphics/SVG/1.1/DTD/svg11.dtd">
<svg version="1.1" id="Layer_1" xmlns="http://www.w3.org/2000/svg" xmlns:xlink="http://www.w3.org/1999/xlink" x="0px" y="0px"
	 viewBox="-483.8 373.5 186.8 222.6" style="enable-background:new -483.8 373.5 186.8 222.6;" xml:space="preserve">
<style type="text/css">
	.st0{fill:#FFFFFF;}
	.st1{fill:none;stroke:#3C0094;stroke-width:3;}
	.st2{fill:#6401F7;stroke:#3C0094;stroke-width:3;}
	.st3{fill:#6401F7;stroke:#3C0094;stroke-width:3;stroke-linecap:round;stroke-linejoin:round;}
	.st4{fill:#5F00EF;stroke:#3C0094;stroke-width:3;stroke-linecap:round;stroke-linejoin:round;}
	.st5{fill:none;stroke:#3C0094;stroke-width:3;stroke-linecap:round;stroke-linejoin:round;}
	.st6{fill:#3C0094;}
	.st7{fill:none;stroke:#3C0094;stroke-width:3;stroke-linecap:round;}
	.st8{fill:none;stroke:#FFFFFF;stroke-width:2;stroke-linecap:round;stroke-linejoin:round;}
</style>
<title>Page 1</title>
<desc>Created with Sketch.</desc>
<g>
	<g>
		<path id="path-17" class="st0" d="M-423.4,465.2c-0.6,0-1.2,0.5-1.2,1.2v39.4c0,0.6,0.5,1.2,1.2,1.2h71.9c0.6,0,1.2-0.5,1.2-1.2
			v-39.4c0-0.6-0.5-1.2-1.2-1.2H-423.4L-423.4,465.2z"/>
	</g>
	<g>
		<polygon id="path-15" class="st0" points="-424.6,507 -350.3,507 -387.5,479.1 		"/>
	</g>
	<g>
		<path id="path-5" class="st0" d="M-461.7,459.4c-0.6,0-0.8,0.7-0.3,1l35.7,26.8l35.7-26.8c0.5-0.3,0.2-1-0.3-1H-461.7
			L-461.7,459.4z"/>
	</g>
	<g id="Page-1">
		<g transform="translate(-328.000000, -1671.000000)">
			<g id="Group-9" transform="translate(379.000000, 1671.140000)">
				<path id="Stroke-7" class="st1" d="M-396.7,454.4v-58.7"/>
			</g>
			<path id="Stroke-13" class="st2" d="M-94.3,2088.5L-94.3,2088.5c-19.2,0-34.8,15.6-34.8,34.8v55.7h69.6v-55.7
				C-59.5,2104-75.1,2088.5-94.3,2088.5L-94.3,2088.5z"/>
			<path id="Stroke-18" class="st2" d="M-62.4,2100.5h-71.9c-0.6,0-1.2,0.5-1.2,1.2v39.5c0,0.6,0.5,1.2,1.2,1.2h71.9
				c0.6,0,1.2-0.5,1.2-1.2v-39.5C-61.2,2101-61.7,2100.5-62.4,2100.5L-62.4,2100.5z"/>
			<path id="Stroke-23" class="st1" d="M-62.6,2101.5l-35.7,26.8l-35.7-26.8c-0.5-0.3-0.2-1,0.3-1h70.8
				C-62.4,2100.5-62.1,2101.2-62.6,2101.5L-62.6,2101.5z"/>
			<g id="Group-38" transform="translate(338.000000, 1862.140000)">
				<path id="Stroke-28" class="st2" d="M-410.2,261.6h-71.9c-0.6,0-1.2,0.5-1.2,1.2v39.4c0,0.6,0.5,1.2,1.2,1.2h71.9
					c0.6,0,1.2-0.5,1.2-1.2v-39.4C-409.1,262.1-409.6,261.6-410.2,261.6L-410.2,261.6z"/>
				<path id="Stroke-30" class="st1" d="M-477.5,267.4h15.1"/>
				<path id="Stroke-32" class="st1" d="M-477.5,272h9.3"/>
				<path id="Stroke-34" class="st1" d="M-457.8,280.1h26.7"/>
				<path id="Stroke-36" class="st1" d="M-457.8,284.8h20.9"/>
			</g>
			<path id="Stroke-42" class="st3" d="M-103.1,2116.2l-50.8,50.8c-0.5,0.5-0.5,1.2,0,1.6l27.9,27.9c0.5,0.5,1.2,0.5,1.6,0
				l50.8-50.8c0.5-0.5,0.5-1.2,0-1.6l-27.9-27.9C-101.9,2115.8-102.6,2115.8-103.1,2116.2L-103.1,2116.2z"/>
			<polygon id="Stroke-47" class="st3" points="-125.2,2197.4 -118.7,2151.5 -72.7,2144.9 			"/>
			<path id="Stroke-52" class="st2" d="M-102.5,2117.1l-6.3,44.2l-44.2,6.3c-0.6,0.1-0.9-0.6-0.5-1l50-50
				C-103.1,2116.2-102.4,2116.6-102.5,2117.1L-102.5,2117.1z"/>
			<polygon id="Stroke-57" class="st1" points="-96.6,2148.1 -59.5,2120.2 -22.3,2148.1 			"/>
			<g id="Group-72" transform="translate(387.000000, 1844.140000)">
				<path id="Stroke-62" class="st4" d="M-410.5,262.1h-71.9c-0.6,0-1.2,0.5-1.2,1.2v39.4c0,0.6,0.5,1.2,1.2,1.2h71.9
					c0.6,0,1.2-0.5,1.2-1.2v-39.4C-409.3,262.7-409.9,262.1-410.5,262.1L-410.5,262.1z"/>
				<path id="Stroke-64" class="st1" d="M-477.8,268h15.1"/>
				<path id="Stroke-66" class="st1" d="M-477.8,272.6h9.3"/>
				<path id="Stroke-68" class="st1" d="M-458.1,280.7h26.7"/>
				<path id="Stroke-70" class="st1" d="M-458.1,285.3h20.9"/>
			</g>
			<path id="Stroke-76" class="st2" d="M-40.9,2137.2h-71.9c-0.6,0-1.2,0.5-1.2,1.2v39.4c0,0.6,0.5,1.2,1.2,1.2h71.9
				c0.6,0,1.2-0.5,1.2-1.2v-39.4C-39.8,2137.7-40.3,2137.2-40.9,2137.2L-40.9,2137.2z"/>
			<polygon id="Stroke-81" class="st5" points="-114,2178.9 -76.9,2151.1 -39.8,2178.9 			"/>
			<path id="Stroke-86" class="st2" d="M-41.2,2138.2l-35.7,26.8l-35.7-26.8c-0.5-0.3-0.2-1,0.3-1h70.8
				C-40.9,2137.2-40.7,2137.9-41.2,2138.2L-41.2,2138.2z"/>
			<g id="Group-105" transform="translate(0.000000, 0.140000)">
				<path id="Stroke-91" class="st2" d="M-94.3,2088.3c19.2,0,34.8,15.6,34.8,34.8v55.7h89v-55.7c0-19.2-15.6-34.8-34.8-34.8H-94.3
					L-94.3,2088.3z"/>
				<path id="Stroke-93" class="st1" d="M-59.5,2123.1h89.1"/>
				<polygon id="Fill-95" class="st6" points="17.1,2066.7 -17.7,2066.7 -17.7,2045.9 17.1,2045.9 11.2,2056.3 				"/>
				<polygon id="Stroke-97" class="st7" points="17.1,2066.7 -17.7,2066.7 -17.7,2045.9 17.1,2045.9 11.2,2056.3 				"/>
				<polygon id="Stroke-99" class="st8" points="-4.4,2062.7 -8.5,2058.7 0.3,2049.9 4.3,2053.9 				"/>
				<polygon id="Stroke-101" class="st8" points="4.3,2058.7 0.3,2062.7 -8.5,2054 -4.5,2049.9 				"/>
				<g id="Clip-104">
				</g>
				<polygon id="Stroke-103" class="st3" points="-61.3,2265.4 -39.2,2265.4 -39.2,2178.8 -61.3,2178.8 				"/>
				<path id="Stroke-5" class="st5" d="M-51.9,2265.4v-86.8"/>
			</g>
		</g>
	</g>
</g>
</svg>
