<?xml version="1.0" standalone="no"?>
<!DOCTYPE svg PUBLIC "-//W3C//DTD SVG 20010904//EN"
 "http://www.w3.org/TR/2001/REC-SVG-20010904/DTD/svg10.dtd">
<svg version="1.0" xmlns="http://www.w3.org/2000/svg"
 width="2996.000000pt" height="2736.000000pt" viewBox="0 0 2996.000000 2736.000000"
 preserveAspectRatio="xMidYMid meet">
<metadata>
Created by potrace 1.13, written by Peter Selinger 2001-2015
</metadata>
<g transform="translate(0.000000,2736.000000) scale(0.100000,-0.100000)"
fill="#000000" stroke="none">
<path d="M29440 27087 c-223 -150 -1161 -777 -2085 -1394 l-1680 -1122 -2140
385 -2141 385 -354 -182 c-195 -100 -803 -411 -1350 -691 -1639 -840 -1874
-961 -2140 -1098 -140 -72 -296 -152 -346 -177 l-92 -46 -748 112 c-412 62
-909 137 -1104 167 -579 88 -647 98 -1559 235 l-875 131 -60 -25 c-34 -13
-997 -383 -2140 -822 l-2079 -799 -2141 323 -2141 322 -2095 -861 c-1152 -474
-2112 -869 -2132 -877 l-38 -15 0 -10519 0 -10519 14980 0 14980 0 0 13680 0
13680 -57 -1 -58 0 -405 -272z"/>
</g>
</svg>
